<?xml version="1.0" standalone="no"?><!DOCTYPE svg PUBLIC "-//W3C//DTD SVG 1.1//EN" "http://www.w3.org/Graphics/SVG/1.1/DTD/svg11.dtd"><svg t="1616687334053" class="icon" viewBox="0 0 1024 1024" version="1.1" xmlns="http://www.w3.org/2000/svg" p-id="8177" xmlns:xlink="http://www.w3.org/1999/xlink" width="200" height="200"><defs><style type="text/css"></style></defs><path d="M512 863c-16 0-32-6.1-44.2-18.3L167.7 544.6c-87.7-87.7-87.7-230.4 0-318.1s230.4-87.7 318.1 0l26.3 26.3 26.3-26.3c42.4-42.4 98.8-65.7 159-65.7s116.7 23.3 159 65.7c42.4 42.4 65.7 98.8 65.7 159.1 0 60.2-23.4 116.7-65.8 159.1l-300.2 300C544 856.9 528 863 512 863zM326.7 230.9c-41.5 0-80.4 16-109.6 45.2-60.4 60.4-60.4 158.7 0 219.1L512 790l294.8-294.8c29.2-29.1 45.3-68 45.3-109.6 0-41.5-16-80.4-45.2-109.5-29.1-29.1-68-45.2-109.6-45.2s-80.4 16-109.6 45.2l-51 51c-13.7 13.7-35.8 13.7-49.5 0l-51-51c-29.1-29.2-68-45.2-109.5-45.2z" fill="#151515" p-id="8178"></path></svg>